<?xml version="1.0" encoding="UTF-8" standalone="no"?>
<!DOCTYPE svg PUBLIC "-//W3C//DTD SVG 1.1//EN" "http://www.w3.org/Graphics/SVG/1.1/DTD/svg11.dtd">
<svg width="100%" height="100%" viewBox="0 0 1323 546" version="1.1" xmlns="http://www.w3.org/2000/svg" xmlns:xlink="http://www.w3.org/1999/xlink" xml:space="preserve" xmlns:serif="http://www.serif.com/" style="fill-rule:evenodd;clip-rule:evenodd;stroke-linejoin:round;stroke-miterlimit:2;">
    <g transform="matrix(1,0,0,1,-1209.02,-1063.48)">
        <g transform="matrix(1,0,0,1,800.734,-661.753)">
            <g transform="matrix(10.0668,0,0,10.0668,-12261.3,-9740.43)">
                <path d="M1277,1148.11L1269.45,1183.71L1258.55,1183.71L1266.1,1148.11L1277,1148.11Z" style="fill:white;fill-rule:nonzero;"/>
                <path d="M1306.25,1138.96L1306.65,1139.16C1304.89,1148.62 1303.2,1158.36 1301.6,1168.36C1301.7,1168.62 1301.75,1168.83 1301.75,1168.96L1301.95,1168.96C1306.32,1149.26 1308.64,1139.26 1308.9,1138.96L1309.05,1138.96L1309.25,1139.36C1305.25,1161.23 1303.25,1172.39 1303.25,1172.86L1303.65,1173.06C1308.52,1151.36 1311.14,1139.99 1311.5,1138.96L1311.7,1138.96L1311.9,1139.36L1304.95,1177.01C1305.09,1177.24 1305.15,1177.42 1305.15,1177.56L1305.35,1177.56C1310.45,1154.66 1313.39,1141.79 1314.15,1138.96L1314.3,1138.96L1314.7,1139.16L1306.65,1181.11C1306.75,1181.34 1306.8,1181.53 1306.8,1181.66L1307.2,1181.66C1312.94,1155.56 1316.19,1141.33 1316.95,1138.96L1317.15,1138.96C1317.15,1139.09 1317.2,1139.16 1317.3,1139.16C1315.07,1151.79 1312.27,1166.53 1308.9,1183.36L1308.5,1183.56L1296.15,1183.56C1295.65,1183.23 1293.47,1178.23 1289.6,1168.56L1289.2,1168.56C1288.97,1170.36 1287.1,1178.48 1283.6,1192.91L1283.2,1193.11C1283.2,1192.98 1283.15,1192.91 1283.05,1192.91C1288.79,1164.01 1291.77,1149.09 1292,1148.16L1293.9,1148.16C1294.2,1148.16 1296.27,1153.71 1300.1,1164.81L1300.45,1164.81C1300.72,1162.88 1302.6,1154.26 1306.1,1138.96L1306.25,1138.96ZM1281.55,1148.16L1283.05,1148.16C1283.29,1148.19 1283.4,1148.31 1283.4,1148.51L1272.9,1193.11L1272.75,1193.11L1272.55,1192.76C1274.65,1181.19 1277.52,1166.38 1281.15,1148.31L1281.55,1148.16ZM1285.65,1148.16C1285.92,1148.19 1286.05,1148.31 1286.05,1148.51C1280.42,1173.04 1276.92,1187.91 1275.55,1193.11L1275.35,1193.11C1275.35,1192.98 1275.29,1192.91 1275.15,1192.91C1277.29,1181.78 1280.22,1166.86 1283.95,1148.16L1285.65,1148.16ZM1286.95,1148.16L1288.3,1148.16C1288.54,1148.19 1288.65,1148.31 1288.65,1148.51C1285.52,1162.38 1282.09,1177.24 1278.35,1193.11L1277.95,1193.11L1277.95,1192.91C1278.09,1191.38 1280.97,1176.51 1286.6,1148.31L1286.95,1148.16ZM1290.9,1148.16C1291.14,1148.19 1291.25,1148.31 1291.25,1148.51C1284.65,1177.61 1281.22,1192.48 1280.95,1193.11L1280.8,1193.11L1280.6,1192.76C1285.34,1167.86 1288.27,1152.99 1289.4,1148.16L1290.9,1148.16Z" style="fill:white;fill-rule:nonzero;"/>
                <path d="M1355.95,1148.11L1338.9,1162.76L1349.2,1183.71L1336.85,1183.71L1330.35,1169.86L1326.45,1173.26L1324.2,1183.71L1313.35,1183.71L1320.9,1148.11L1331.75,1148.11L1330.35,1154.91C1329.95,1156.81 1329.45,1158.73 1328.85,1160.66C1329.85,1159.39 1331.77,1157.42 1334.6,1154.76L1341.65,1148.11L1355.95,1148.11Z" style="fill:white;fill-rule:nonzero;"/>
                <path d="M1389.95,1162.46C1389.95,1166.53 1389.19,1170.21 1387.65,1173.51C1386.12,1176.81 1383.8,1179.48 1380.7,1181.51C1377.6,1183.54 1373.99,1184.56 1369.85,1184.56C1364.79,1184.56 1360.84,1183.17 1358,1180.41C1355.17,1177.64 1353.75,1173.69 1353.75,1168.56C1353.75,1162.46 1355.59,1157.38 1359.28,1153.31C1362.96,1149.24 1367.82,1147.21 1373.85,1147.21C1378.72,1147.21 1382.62,1148.54 1385.55,1151.21C1388.49,1153.88 1389.95,1157.62 1389.95,1162.46ZM1373.35,1155.91C1371.85,1155.91 1370.51,1156.34 1369.33,1157.21C1368.14,1158.08 1367.23,1159.19 1366.58,1160.56C1365.93,1161.92 1365.44,1163.34 1365.1,1164.81C1364.77,1166.28 1364.6,1167.69 1364.6,1169.06C1364.6,1171.26 1365.13,1172.95 1366.18,1174.13C1367.23,1175.32 1368.7,1175.91 1370.6,1175.91C1372.44,1175.91 1374.02,1175.11 1375.35,1173.51C1376.69,1171.91 1377.62,1170.15 1378.15,1168.23C1378.69,1166.32 1378.95,1164.49 1378.95,1162.76C1378.95,1160.73 1378.5,1159.08 1377.6,1157.81C1376.7,1156.54 1375.29,1155.91 1373.35,1155.91Z" style="fill:white;fill-rule:nonzero;"/>
            </g>
        </g>
    </g>
</svg>
